<?xml version="1.0" encoding="UTF-8"?>
<svg version="1.2" baseProfile="tiny-ps" width="1024" height="1024" viewBox="0 0 1025.3 1025.3" xmlns="http://www.w3.org/2000/svg">
  <title>Dargenta Logo</title>
  <rect x="0" y="0" fill="#93162F" width="1025.3" height="1025.3"/>
  <g fill="#FFFFFF" fill-rule="evenodd">
    <path d="M966.8,459.8c0.3,3.3-1.4,6.6-4.3,8.2c-1.4,0.5-2.8,0.7-4.3,0.6c-8.6,0.5-17.1,0.7-25.7,1.4c-10.3,0.9-20.5,1.8-31,3c-18.3,2.2-36.5,5.3-54.2,9c-25.9,5.3-51.6,11.9-76.8,19.7c-26,8.1-51.5,17.8-76.3,29l-1.4,0.6c-1.4-3.6-1.4-7.6,0-11.2c1.7-4.6,2.9-9.3,4.3-13.9l0,0l-5.8,6.7c-3.2,4.3-6.6,8.3-10.2,12.2c-3.1,2.6-6.5,4.7-10.2,6.3c-3,1.8-6.5,2.7-10,2.5c-3.4-0.2-6.3-2.2-7.7-5.3c-1.4-3-2.1-6.3-2.1-9.7c-0.4-4.7,0.7-9.5,3.2-13.5c2.2-3.5,4-7,5.9-10.6c0.3-0.4,0.5-0.8,0.6-1.3l-9.8,12.1c-6.7,8.8-14.3,16.9-22.6,24.2c-3.7,3-7.7,5.8-11.8,8.2c-2.9,1.9-6.4,2.6-9.8,1.8c-2.1-0.4-3.4-2.5-3-4.6l0,0c0-0.2,0-0.4,0-0.5c0.9-2.3,2-4.6,3.4-6.7c8.9-14.6,17.8-29.1,26.9-43.6l3.8-6.3c0-0.9,0.8-1.9,1.1-2.9V475c-0.7,0.2-1.3,0.4-1.8,0.8c-2.8,2.6-5.8,5.2-8.5,7.7c-6.3,6.6-12.5,13.2-18.7,19.8l-31,32.7c-3,3.3-6,6.6-9.2,9.8c-1.5,1.7-3.5,2.8-5.7,3c-2.3,0.5-4.6-1.1-5.1-3.4c0,0,0-0.1,0-0.1c-0.1-0.5-0.1-1.1,0-1.6c0.2-1.5,0.8-2.9,1.6-4.2c6.6-10.1,13.3-20,19.8-30.4c2.9-5,5.5-10.2,7.7-15.5c0.4-0.7,0.5-1.4,0.5-2.2l-7,7.7L559,524.6c-5.1,5.8-10.2,11.8-15.5,17.6c-4.6,5.7-10.4,10.3-17,13.5c-2,0.8-4.1,1.4-6.3,1.7c-5.4,0.9-10.7-1.6-13.5-6.3l-1.6-2.6l-5.3,3.3l-25.4,16.2c-0.9,0.6-1.6,1.5-2.1,2.5c-7.1,17.3-15,34.2-23.9,50.6c-7.7,13.3-17,25.6-27.7,36.7c-3.2,3.1-6.8,5.9-10.5,8.3c-1.7,1.1-3.7,1.8-5.7,2.2c-2.9,0.9-5.9-0.7-6.8-3.6c0,0,0-0.1,0-0.1v-0.7c-0.5-3.3-0.5-6.6,0-9.9c2.7-15.9,9.6-30.7,19.9-43.1c12.8-15.9,27.7-29.9,44.5-41.5c2.9-2.1,4.4-5.6,4-9.1c-2.1-0.3-4.2,0.3-5.8,1.6c-2.7,2.6-6.1,4.2-9.8,4.7c-3.8,0.7-7.5-1.9-8.2-5.7l0,0c-1-4.6-0.3-9.4,1.9-13.5c3.4-6.5,7.6-12.6,12.6-18c10.4-12.4,22.3-23.5,35.5-32.9c4.1-3.3,8.8-5.7,13.9-7.1c1.7-0.5,3.6-0.2,5.1,0.9c0,0.4,0.9,1.1,0.7,1.5c-0.7,3.6-1.5,7.1-2.3,10.8c-1.1-0.7-2.2-1.6-3.1-2.6c-0.9-0.8-1.5-0.5-2.5,0c-4.7,1.9-9.1,4.5-13.1,7.7c-9.9,8-19.1,16.9-27.4,26.5c-2,2.2-4.5,4.2-6.5,6.4c-1.1,1.3-2,2.7-2.6,4.3c-0.9,2,0,4.4,2,5.3c0.5,0.1,0.9,0.1,1.4,0c4,0.6,8-0.5,11.1-3.2c12.6-11.4,22.7-25.4,29.5-41c0.9-1.8,2.6-3.1,4.6-3.4c0.7-0.3,1.6,0,1.9,0.8l0,0c0.1,0.3,0.1,0.6,0,0.9c-0.1,1.8-0.5,3.5-1.2,5.1c-7.3,12.9-14.8,25.9-22.3,38.7c-0.7,1.2-1.5,2.3-2.4,3.3c-0.5,0.6-0.4,1.6,0.2,2.1c0.3,0.2,0.7,0.4,1.1,0.3c1.6-0.1,3.1-0.6,4.5-1.4c7.7-4.9,15-10,22.5-14.9c0.5-0.3,0.8-0.8,1-1.4c2.5-9.8,6.5-19.2,11.8-27.8c5.2-9.5,12.4-17.8,21-24.4c5.1-3.9,10.8-6.7,17-8.4c3-1.3,6.4,0.1,7.7,3.1v0.1c0.4,0.9,0.5,1.9,0.5,2.9c0.1,2.2-0.2,4.4-0.9,6.5c-3.8,9.5-9.6,18.1-17,25.2c-7.4,7.5-15.3,14.5-23.5,21.1l-8.5,6.7c-1.5,1.6-2,3.9-1.4,6c0.5,1.8,2.3,2.9,4.2,2.6c3.8-0.1,7.4-1.7,10-4.4c7.7-8.6,16.6-17.3,24.8-26.2c11.5-12.3,22.1-25.6,34.7-36.8c3.7-3.3,7.6-6.5,11.7-9.5c1.2-1,2.5-1.6,4-1.9c1.1-0.2,2.3,0,3.2,0.6c0.5,0.9,0.5,2.1,0,3c-1.3,2.8-2.8,5.5-4.3,8.1c-6,10.3-12,20.7-18,31c-1.1,1.8-2.1,3.7-2.9,5.7c0.6-0.8,1.2-1.6,1.9-2.3c9.4-10.8,18.6-21.9,28.3-32.4c13-13.8,26.5-26.9,39.8-40.4c1.3-1.3,2.9-2.3,4.6-3.1c0.9-0.5,2.1-0.5,3,0c0.6,0.8,0.8,1.8,0.5,2.8c-0.9,2.5-2,4.9-3.3,7.2c-7,12.8-14.2,25.5-21.2,38.2l-17.7,31c-0.5,0.9-1.1,1.7-1.8,2.5c-0.4,0.7-0.2,1.5,0.4,2l0,0c1.4,0.9,3.3,0.7,4.5-0.5c9.7-9.8,18.5-20.4,26.2-31.8c12.4-17.6,24.2-35.4,36.8-53.3c4.6-6.7,9.3-13.2,14.2-20l-2.3,0.5l-19.3,5.6c-1.3,0.5-2.1,0.5-2.7-1.1c-0.8-1.7-1.7-3.3-2.7-4.9l17.5-4.9l17.2-4.6c0.7-0.4,1.3-0.9,1.8-1.6c14.9-20.7,29.5-41.3,44-61.9c0.8-1.4,2.3-2.1,3.9-1.8c1.4,0.4,2.8,0.8,4.3,1l-38.8,56.7c0.4,0.4,0.7,0.8,1,1.2c0.5,1.1,1.2,1.2,2.4,0.8l25.2-7.8l1.8-0.5l2.5,5.6l-11.1,4.1L715,416c-0.8,0.3-1.5,0.8-2,1.5L678,467.2c-0.2,0.3-0.4,0.6-0.5,1c17-20.3,39.4-35.5,64.6-43.6c-1.8,3.5-3.4,6.8-5.2,10c0,0.5-0.9,0.8-1.4,0.9c-10.4,3.8-20.1,9.3-28.6,16.4C689.7,466,675,483,663.6,502.1c-2.9,4.6-4.6,10-4.7,15.5c-0.1,0.9-0.1,1.8,0,2.7c0.5,2.7,3,4.6,5.8,4.1c0,0,0,0,0.1,0h0.8c3.7-1.2,6.9-3.5,9.1-6.7c8.7-11.5,17.4-22.8,26.2-34.4s17.7-23.2,26.9-35.1c0.2,2.9-0.1,5.8-0.9,8.5c-8.2,19.7-16.5,39.5-24.8,59.1v1l2.1-0.6c31-10.7,61.9-20.8,92.9-29.3c28.3-7.9,57.1-14,86.2-18.4c16.7-2.2,33.4-4,50.3-5.9c10.7-1.1,21.3-1.8,32-2.6L966.8,459.8z M457.8,585.9l-0.5-0.5c-1.5,0.9-2.9,1.6-4.3,2.6c-11.4,7.9-21.4,17.6-29.7,28.6c-6.2,7.5-10.8,16.2-13.8,25.5c-0.3,1-0.8,2-1.5,2.9c-1.8,2.2-2.9,4.9-3.1,7.7c-0.2,1.8,1,3.5,2.8,3.8c0.6,0.2,1.3,0.2,1.9,0c1.6-0.7,3.1-1.7,4.3-2.9c4.1-3.8,7.7-7.7,11.7-11.9c9.8-12.6,18.3-26.1,25.2-40.5c2.4-5,4.6-10.2,7-15.5L457.8,585.9z M518.3,529.1l0.5,0.5l1.5-1.6c2.6-2.2,5.2-4.4,7.7-6.6c11.1-8.8,20.8-19.2,28.8-31c1-1.5,1.8-3.2,2.4-4.9c0-0.7,0-2.1-0.5-2.4c-0.8-0.4-1.8-0.4-2.6,0c-1.9,0.9-3.7,2-5.3,3.3c-9.5,7.8-17.5,17.2-23.9,27.6c-2.9,4.6-5.8,9.4-8.7,14.3L518.3,529.1z"/>
    <path d="M273.4,611.6c-2.4-1.1-4.7-2.1-7-3.2c0,0-0.4-1.2,0-1.6c3.6-8.4,7.1-17,10.9-25.5c11-24.5,23.3-48.4,36.9-71.6c10.3-18.7,22.2-36.5,35.3-53.3c6.1-8.2,13.3-15.6,21.4-21.8c3.8-3.1,8.4-5.1,13.2-5.9c0.7-0.1,1.4,0.2,2,0.6c3.7,3.2,5.8,7.9,5.6,12.9c0,9.3-1.6,18.5-4.7,27.2c-4.1,13.4-9.1,26.5-15,39.2c-8.2,17.5-16.4,34.9-24.5,52c-14.1,28.4-28.7,56.5-42.8,85.2c-5.2,10.5-9.5,21.1-14.4,31.7c-0.4,1-1.1,1.9-1.9,2.6c-1.9,1.5-4.7,1.3-6.2-0.6l-0.1-0.1c-0.9-1.1-1.2-2.5-0.8-3.9c0.8-2.7,1.8-5.2,3-7.7c10.9-22.1,21.8-44.2,32.7-66.3l24.5-48.4l0.5-1l-33.9,2.3c-0.3-3.3,0.6-6.6,2.5-9.4c1.3-1.8,3.5-2.8,5.7-2.7l28.3-0.4c1.3,0.1,2.5-0.7,2.9-1.9c8.2-18.4,17.4-36.7,25.9-55.2c3.6-7.4,6.4-15.2,8.4-23.2c0.9-5,1.6-10,1.9-15c0.6-2.9-0.8-5.9-3.4-7.3c-2.8-1.2-5.2,0.5-7.1,2.4c-1.8,1.6-3.5,3.4-4.9,5.4c-4.2,5.6-7.7,11.2-12.5,16.8c-8.8,12-17,24.4-24.6,37.2c-11.3,18-21.6,36.5-31,55.6c-8.7,17.9-17,35.9-25.4,54.2C274.3,610.7,273.8,611.1,273.4,611.6z"/>
    <path d="M58.5,618.6c1.2-3.2,2.4-6.2,3.2-9.3c0.6-2.8,2.7-5,5.4-5.7c20-7.7,40-16.3,60-24.4s39.2-16.3,58.1-26.2c11.4-5.9,22.3-12.9,32.3-20.8c9-6.4,16.4-14.6,21.8-24.2c1.7-3.3,2.9-6.8,3.6-10.5c0.9-5-0.9-10-4.7-13.3c-5-4.4-11-7.4-17.6-8.7c-11.6-2.6-23.5-3.7-35.4-3.2c-22,0.6-44,3.5-65.4,8.7c-12.9,2.9-25.5,6.6-37.8,11.2h-1.1c0.8-1.8,1.4-3.7,1.8-5.6c0.7-4.6,3.5-6.4,7.7-7.7c17.7-5.4,35.8-9.4,54.2-11.9c16.7-2.3,33.6-3.3,50.5-3c12.6,0.1,25,1.9,37.1,5.4c5.6,1.6,10.9,4.2,15.5,7.7c6.4,5,9.4,13.2,7.7,21.2c-1.6,9-5.8,17.3-12.2,23.9c-10.1,10.8-21.6,20.2-34.2,27.9c-21.3,13.2-43.5,24.7-66.6,34.3c-19.6,8.4-39.2,16.3-59.3,24.2c-7.7,3.2-15.4,6.2-23.2,9.2L58.5,618.6z"/>
    <path d="M365,537.6v-6.7c0-0.4,0.2-0.9,0.6-1.1c7.5-4.8,16.1-7.8,25-8.7c1-0.1,2.1-0.1,3.1,0c4.3,0.2,7.5,3.9,7.3,8.2c0,0.1,0,0.2,0,0.3c-0.3,4-0.9,7.9-1.8,11.8c5-3.7,10.2-7.7,15.5-11.7c5.7-3.8,11.7-7.4,17.8-10.5c6.1-3.1,12.2-5.9,18.6-8.5c6.3-2.6,12.7-5,19.3-7.3c0,2.4,0.8,4.6,0.9,6.7c-0.3,0.4-0.7,0.7-1.2,1c-8.7,3.6-17.6,6.7-26,10.8c-17.2,8.1-32.8,19.3-46,33c-9.4,9.9-17.7,20.8-24.9,32.4c-2.7,4.3-5.2,8.7-8.1,13c-1.1,2.1-3.1,3.5-5.4,3.7c-1.7,0.4-3.3-0.7-3.7-2.3l0,0c-0.2-0.7-0.2-1.4,0-2.1c0.6-1.8,1.3-3.4,2.3-5l25.5-43.3c2.2-3.9,4.7-7.7,6.9-11.8c1.1-1.8,2-3.8,2.6-5.8c0.9-2.7-0.5-4.2-3.2-4.3c-4.2,0.1-8.3,1.1-12.1,2.9l-12.2,5L365,537.6z"/>
    <path d="M106.8,575.7c2.8-3.6,5.4-6.7,7.7-10.1c12.9-16.5,23.3-34.7,31-54.2c2.5-6.6,4.3-13.3,6.3-20c0.2-1.2,1-2.2,2.2-2.5c5.4-2.2,10.8-4.5,16.4-6.9v1.2c-8.9,27.1-21.5,52.8-37.4,76.5c-2.6,3.9-5.6,7.7-7.7,11.4c-3,4-7.8,6.1-12.8,5.5C110.6,576.4,108.7,576.1,106.8,575.7z"/>
    <path d="M278.3,505.7c2.8-7.2,5.5-14.2,8.3-21.1l9.4-24.7c0.5-1.1,0.9-1.5,2.1-1.5l14.4,0.4c-1.5,2.3-2.9,4.8-4.6,7.7l-24.2,38.2c-1.1,1.7-2.2,2.5-4.1,1.6L278.3,505.7z"/>
  </g>
</svg>
